<svg xmlns="http://www.w3.org/2000/svg" width="1440" height="465" fill="none" viewBox="0 0 1440 465"><path fill="#F5F6F7" fill-rule="evenodd" d="M478.345 -7.91383C695.905 64.28 552.865 152.03 695.905 218.24C838.944 284.451 1040 -7.91383 1040 -7.91383C1040 -7.91383 260.784 -80.1077 478.345 -7.91383Z" clip-rule="evenodd"/><path fill="url(#paint0_linear)" fill-rule="evenodd" d="M436 0C452 136.319 684 84.3276 768.5 154.706C853 225.085 822 407.372 1056 424.491C1290 441.61 1290.5 306.815 1444 334.712C1444 334.712 1444 0 1444 0C1444 0 436 0 436 0Z" clip-rule="evenodd"/><rect width="60" height="60" x="-26" y="228" fill="url(#paint1_linear)" opacity=".35" rx="30"/><rect width="20" height="20" x="48" y="188" fill="url(#paint2_linear)" opacity=".35" rx="10"/><rect width="20" height="20" x="176" y="222" fill="url(#paint3_linear)" opacity=".35" rx="10"/><rect width="20" height="20" x="156" y="445" fill="url(#paint4_linear)" opacity=".35" rx="10"/><rect width="20" height="20" x="407" y="378" fill="url(#paint5_linear)" opacity=".35" rx="10"/><path fill="url(#paint6_linear)" fill-rule="evenodd" d="M753.941 399.314L742.627 433.255L720 410.627L753.941 399.314Z" clip-rule="evenodd" opacity=".35"/><path fill="url(#paint7_linear)" fill-rule="evenodd" d="M498.782 201.782L518.935 208.5L505.5 221.935L498.782 201.782Z" clip-rule="evenodd" opacity=".35"/><defs><linearGradient id="paint0_linear" x1="1488.8" x2="1398.43" y1="333.123" y2="-157.223" gradientUnits="userSpaceOnUse"><stop stop-color="#F0EFF3"/><stop offset="1" stop-color="#fff"/></linearGradient><linearGradient id="paint1_linear" x1="36.666" x2="4" y1="271.667" y2="211.667" gradientUnits="userSpaceOnUse"><stop stop-color="#59FDDF"/><stop offset="1" stop-color="#2ECC71"/><stop offset="1" stop-color="#41E2A1"/><stop offset="1" stop-color="#2ECC71"/><stop offset="1" stop-color="#3BDB92"/></linearGradient><linearGradient id="paint2_linear" x1="68.889" x2="58" y1="202.556" y2="182.556" gradientUnits="userSpaceOnUse"><stop stop-color="#59FDDF"/><stop offset="1" stop-color="#2ECC71"/></linearGradient><linearGradient id="paint3_linear" x1="196.889" x2="186" y1="236.556" y2="216.556" gradientUnits="userSpaceOnUse"><stop stop-color="#59FDDF"/><stop offset="1" stop-color="#2ECC71"/></linearGradient><linearGradient id="paint4_linear" x1="176.889" x2="166" y1="459.556" y2="439.556" gradientUnits="userSpaceOnUse"><stop stop-color="#59FDDF"/><stop offset="1" stop-color="#2ECC71"/></linearGradient><linearGradient id="paint5_linear" x1="427.889" x2="417" y1="392.556" y2="372.556" gradientUnits="userSpaceOnUse"><stop stop-color="#59FDDF"/><stop offset="1" stop-color="#2ECC71"/></linearGradient><linearGradient id="paint6_linear" x1="757.47" x2="767.43" y1="427.927" y2="377.625" gradientUnits="userSpaceOnUse"><stop stop-color="#59FDDF"/><stop offset="1" stop-color="#2ECC71"/></linearGradient><linearGradient id="paint7_linear" x1="515.771" x2="485.905" y1="199.687" y2="193.773" gradientUnits="userSpaceOnUse"><stop stop-color="#59FDDF"/><stop offset="1" stop-color="#2ECC71"/></linearGradient></defs></svg>