<svg xmlns="http://www.w3.org/2000/svg" xmlns:xlink="http://www.w3.org/1999/xlink" id="Layer_1" data-name="Layer 1" viewBox="0 0 251 96"><defs><style>.cls-1{fill:#4d4d4d}.cls-2{fill:url(#linear-gradient)}.cls-3{fill:url(#linear-gradient-2)}.cls-4{fill:url(#linear-gradient-3)}.cls-5{fill:url(#linear-gradient-4)}.cls-6{fill:url(#linear-gradient-5)}.cls-7{fill:url(#linear-gradient-6)}</style><linearGradient id="linear-gradient" x1="147.62" x2="163.36" y1="48.24" y2="48.24" gradientUnits="userSpaceOnUse"><stop offset="0" stop-color="#2a317f"/><stop offset="1" stop-color="#384da0"/></linearGradient><linearGradient id="linear-gradient-2" x1="166.35" x2="182.09" y1="48.49" y2="48.49" xlink:href="#linear-gradient"/><linearGradient id="linear-gradient-3" x1="185.34" x2="197.49" y1="48.24" y2="48.24" xlink:href="#linear-gradient"/><linearGradient id="linear-gradient-4" x1="199.46" x2="215.2" y1="48.49" y2="48.49" xlink:href="#linear-gradient"/><linearGradient id="linear-gradient-5" x1="217" x2="233.08" y1="48.24" y2="48.24" xlink:href="#linear-gradient"/><linearGradient id="linear-gradient-6" x1="0" x2="251" y1="48" y2="48" xlink:href="#linear-gradient"/></defs><title>bulut-logo</title><path d="M41.53,18.33V78.14h-4.1v-45h-.09l-5.22,45H28.44l-5.05-45h-.08v45H19.2V18.33h6.36l4.72,41.5h.09l4.81-41.5Z" class="cls-1"/><path d="M54.88,61.54H49.15l-1.54,16.6h-4.2l5.65-59.81h6.25l5.82,59.81H56.42Zm-5.39-3.68h5l-2.4-25.75H52Z" class="cls-1"/><path d="M63.09,78.14V18.33h8.56a8.18,8.18,0,0,1,2.56.43,6.33,6.33,0,0,1,2.31,1.37,7,7,0,0,1,1.67,2.44,9.19,9.19,0,0,1,.64,3.64V70.35A9.19,9.19,0,0,1,78.19,74a6.4,6.4,0,0,1-1.67,2.39,6.52,6.52,0,0,1-2.31,1.33,7.91,7.91,0,0,1-2.56.43ZM68,22.44V74h3.25a2.45,2.45,0,0,0,1.92-.94A5.49,5.49,0,0,0,74,69.58V26.89a5.48,5.48,0,0,0-.82-3.46,2.42,2.42,0,0,0-1.92-1Z" class="cls-1"/><path d="M87,22.44v24h6v3.68H87V74h8.13v4.11h-13V18.33H94.75v4.11Z" class="cls-1"/><path d="M112.8,18.33V78.14h-4.88V18.33Z" class="cls-1"/><path d="M128.68,78.14l-8.44-45h-.09v45h-4.1V18.33h5.56l8,44.49V18.33h4.53V78.14Z" class="cls-1"/><path d="M163.36,41.69a7.66,7.66,0,0,1-.86,4.07,4,4,0,0,1-2.14,1.75,3.64,3.64,0,0,1,2.14,1.67,7.62,7.62,0,0,1,.86,4.06V70.52a8.57,8.57,0,0,1-.64,3.43,7.16,7.16,0,0,1-1.67,2.39,6.35,6.35,0,0,1-2.31,1.37,8,8,0,0,1-2.57.43h-8.55V18.33h8.55a7.3,7.3,0,0,1,2.57.48,6.57,6.57,0,0,1,2.31,1.45,7.54,7.54,0,0,1,1.67,2.52,9.73,9.73,0,0,1,.64,3.68Zm-7.19,3.94q2.31,0,2.31-4.28V27.15a6.24,6.24,0,0,0-.81-3.6,2.36,2.36,0,0,0-1.93-1.11h-3.25V45.63Zm2.31,7.95q0-4.28-2.31-4.27h-3.68V74h3.25a2.45,2.45,0,0,0,1.93-1,5.07,5.07,0,0,0,.81-3.21Z" class="cls-2"/><path d="M173.54,78.65a7.52,7.52,0,0,1-2.57-.47,6.67,6.67,0,0,1-4-3.89,9.69,9.69,0,0,1-.64-3.68V18.33h4.88V69.84a6.21,6.21,0,0,0,.81,3.64A2.36,2.36,0,0,0,174,74.54h.51a2.36,2.36,0,0,0,1.92-1.06,6.13,6.13,0,0,0,.82-3.64V18.33h4.87V70.61a9.5,9.5,0,0,1-.64,3.68,6.61,6.61,0,0,1-4,3.89,7.46,7.46,0,0,1-2.56.47Z" class="cls-3"/><path d="M190.22,18.33V74.46h7.27v3.68H185.34V18.33Z" class="cls-4"/><path d="M206.65,78.65a7.52,7.52,0,0,1-2.57-.47,6.82,6.82,0,0,1-2.31-1.41,7,7,0,0,1-1.67-2.48,9.5,9.5,0,0,1-.64-3.68V18.33h4.88V69.84a6.21,6.21,0,0,0,.81,3.64,2.36,2.36,0,0,0,1.92,1.06h.52a2.36,2.36,0,0,0,1.92-1.06,6.2,6.2,0,0,0,.82-3.64V18.33h4.87V70.61a9.5,9.5,0,0,1-.64,3.68,6.85,6.85,0,0,1-1.67,2.48,6.72,6.72,0,0,1-2.31,1.41,7.46,7.46,0,0,1-2.56.47Z" class="cls-5"/><path d="M233.08,22.44h-5.56v55.7h-4.88V22.44H217V18.33h16.08Z" class="cls-6"/><path d="M248,3V93H3V3H248m3-3H0V96H251V0Z" class="cls-7"/></svg>