<svg xmlns="http://www.w3.org/2000/svg" xmlns:xlink="http://www.w3.org/1999/xlink" id="Layer_1" x="0" y="0" version="1.1" viewBox="0 0 64 64" xml:space="preserve" style="enable-background:new 0 0 64 64"><style type="text/css">.st0{fill:#59fddf}</style><title>Asset 63</title><g id="Layer_2"><g id="Layer_1-2"><polygon points="35.1 7.2 33 7.2 33 2.1 31 2.1 31 7.2 28.9 7.2 28.9 0 35.1 0" class="st0"/><path d="M32,20.6c-4,0-7.2-3.3-7.2-7.3c0-4,3.3-7.2,7.3-7.2c4,0,7.2,3.3,7.2,7.2C39.3,17.4,36,20.7,32,20.6 C32,20.7,32,20.7,32,20.6z M32,8.3c-2.8,0-5.2,2.3-5.2,5.2s2.3,5.2,5.2,5.2s5.2-2.3,5.2-5.2l0,0C37.2,10.6,34.8,8.3,32,8.3z" class="st0"/><polygon points="17.3 57.8 12.8 57.8 11.3 54.8 11.4 54.4 24.8 14.1 26.8 14.8 13.5 54.6 14.1 55.7 15.8 55.7 27.9 18.3 29.9 18.9" class="st0"/><rect width="2.1" height="7.2" x="13.4" y="56.8" class="st0"/><polygon points="51.2 57.8 46.7 57.8 34.1 18.9 36.1 18.3 48.2 55.7 49.9 55.7 50.5 54.6 37.2 14.8 39.2 14.1 52.7 54.8" class="st0"/><rect width="2.1" height="7.2" x="48.5" y="56.8" class="st0"/><rect width="7.2" height="2.1" x="22.7" y="35.1" class="st0"/><path d="M35.1,42.3h-6.2V29.9h6.2V42.3z M31,40.3H33V32H31V40.3z" class="st0"/><rect width="7.2" height="2.1" x="34.1" y="35.1" class="st0"/></g></g></svg>